<svg xmlns="http://www.w3.org/2000/svg" xmlns:xlink="http://www.w3.org/1999/xlink" contentStyleType="text/css" data-diagram-type="CLASS" height="478px" preserveAspectRatio="none" style="width:1156px;height:478px;background:#FFFFFF;" version="1.1" viewBox="0 0 1156 478" width="1156px" zoomAndPan="magnify"><title>&#25925;&#38556;&#26816;&#27979;&#31995;&#32479; ER &#22270;</title><defs/><g><g class="title" data-source-line="1"><text fill="#000000" font-family="sans-serif" font-size="14" font-weight="bold" lengthAdjust="spacing" textLength="128.29" x="507.2449" y="24.5332">&#25925;&#38556;&#26816;&#27979;&#31995;&#32479; ER &#22270;</text></g><!--class fault_records--><g class="entity" data-entity="fault_records" data-source-line="11" data-uid="ent0002" id="entity_fault_records"><rect fill="#FFFDF7" height="138.75" rx="2.5" ry="2.5" style="stroke:#888888;stroke-width:0.5;" width="189.4063" x="694.5" y="72.1094"/><ellipse cx="740.9307" cy="93.4609" fill="#ADD1B2" rx="11" ry="11" style="stroke:#181818;stroke-width:1;"/><path d="M743.6963,89.3359 Q743.8525,89.1172 744.04,89.0078 Q744.2275,88.8984 744.4463,88.8984 Q744.8213,88.8984 745.0557,89.1641 Q745.29,89.4141 745.29,90.0234 L745.29,91.4766 Q745.29,92.0859 745.0557,92.3516 Q744.8213,92.6172 744.4463,92.6172 Q744.1025,92.6172 743.8994,92.4141 Q743.6963,92.2266 743.5869,91.7109 Q743.54,91.3516 743.3525,91.1641 Q743.0244,90.7891 742.415,90.5703 Q741.8057,90.3516 741.1807,90.3516 Q740.415,90.3516 739.7744,90.6797 Q739.1494,91.0078 738.6494,91.7578 Q738.165,92.5078 738.165,93.5391 L738.165,94.6328 Q738.165,95.8672 739.0557,96.6953 Q739.9463,97.5078 741.54,97.5078 Q742.4775,97.5078 743.1338,97.2578 Q743.5244,97.1016 743.9463,96.6641 Q744.2119,96.3984 744.3525,96.3203 Q744.5088,96.2422 744.7119,96.2422 Q745.04,96.2422 745.29,96.5078 Q745.5557,96.7578 745.5557,97.1016 Q745.5557,97.4453 745.2119,97.8516 Q744.7119,98.4297 743.915,98.7578 Q742.8369,99.2109 741.54,99.2109 Q740.0244,99.2109 738.8213,98.5859 Q737.8369,98.0859 737.1494,97.0234 Q736.4619,95.9453 736.4619,94.6641 L736.4619,93.5078 Q736.4619,92.1797 737.0713,91.0391 Q737.6963,89.8828 738.79,89.2734 Q739.8838,88.6484 741.1182,88.6484 Q741.8525,88.6484 742.4932,88.8203 Q743.1494,88.9766 743.6963,89.3359 Z " fill="#000000"/><text fill="#000000" font-family="sans-serif" font-size="12" font-style="italic" lengthAdjust="spacing" textLength="92.0449" x="759.4307" y="89.5664">&#171;(T,#AEE) table&#187;</text><text fill="#000000" font-family="sans-serif" font-size="14" lengthAdjust="spacing" textLength="80.9307" x="764.9878" y="106.7363">fault_records</text><line style="stroke:#888888;stroke-width:0.5;" x1="695.5" x2="882.9063" y1="114.8125" y2="114.8125"/><ellipse cx="705.5" cy="129.1172" fill="none" rx="3" ry="3" style="stroke:#038048;stroke-width:1;"/><text fill="#000000" font-family="sans-serif" font-size="14" lengthAdjust="spacing" textLength="101.1514" x="714.5" y="133.3457">id : BIGINT {PK}</text><text fill="#000000" font-family="sans-serif" font-size="14" lengthAdjust="spacing" textLength="115.9307" x="714.5" y="150.9551">fault_level : ENUM</text><text fill="#000000" font-family="sans-serif" font-size="14" lengthAdjust="spacing" textLength="90.2412" x="714.5" y="168.5645">status : ENUM</text><text fill="#000000" font-family="sans-serif" font-size="14" lengthAdjust="spacing" textLength="159.4961" x="714.5" y="186.1738">created_at : TIMESTAMP</text><text fill="#000000" font-family="sans-serif" font-size="14" lengthAdjust="spacing" textLength="163.4063" x="714.5" y="203.7832">updated_at : TIMESTAMP</text></g><!--class exec_logs--><g class="entity" data-entity="exec_logs" data-source-line="24" data-uid="ent0003" id="entity_exec_logs"><rect fill="#FFFDF7" height="156.3594" rx="2.5" ry="2.5" style="stroke:#888888;stroke-width:0.5;" width="189.4063" x="694.5" y="315.6094"/><ellipse cx="740.9307" cy="336.9609" fill="#ADD1B2" rx="11" ry="11" style="stroke:#181818;stroke-width:1;"/><path d="M743.6963,332.8359 Q743.8525,332.6172 744.04,332.5078 Q744.2275,332.3984 744.4463,332.3984 Q744.8213,332.3984 745.0557,332.6641 Q745.29,332.9141 745.29,333.5234 L745.29,334.9766 Q745.29,335.5859 745.0557,335.8516 Q744.8213,336.1172 744.4463,336.1172 Q744.1025,336.1172 743.8994,335.9141 Q743.6963,335.7266 743.5869,335.2109 Q743.54,334.8516 743.3525,334.6641 Q743.0244,334.2891 742.415,334.0703 Q741.8057,333.8516 741.1807,333.8516 Q740.415,333.8516 739.7744,334.1797 Q739.1494,334.5078 738.6494,335.2578 Q738.165,336.0078 738.165,337.0391 L738.165,338.1328 Q738.165,339.3672 739.0557,340.1953 Q739.9463,341.0078 741.54,341.0078 Q742.4775,341.0078 743.1338,340.7578 Q743.5244,340.6016 743.9463,340.1641 Q744.2119,339.8984 744.3525,339.8203 Q744.5088,339.7422 744.7119,339.7422 Q745.04,339.7422 745.29,340.0078 Q745.5557,340.2578 745.5557,340.6016 Q745.5557,340.9453 745.2119,341.3516 Q744.7119,341.9297 743.915,342.2578 Q742.8369,342.7109 741.54,342.7109 Q740.0244,342.7109 738.8213,342.0859 Q737.8369,341.5859 737.1494,340.5234 Q736.4619,339.4453 736.4619,338.1641 L736.4619,337.0078 Q736.4619,335.6797 737.0713,334.5391 Q737.6963,333.3828 738.79,332.7734 Q739.8838,332.1484 741.1182,332.1484 Q741.8525,332.1484 742.4932,332.3203 Q743.1494,332.4766 743.6963,332.8359 Z " fill="#000000"/><text fill="#000000" font-family="sans-serif" font-size="12" font-style="italic" lengthAdjust="spacing" textLength="92.0449" x="759.4307" y="333.0664">&#171;(T,#AEE) table&#187;</text><text fill="#000000" font-family="sans-serif" font-size="14" lengthAdjust="spacing" textLength="63.041" x="773.9326" y="350.2363">exec_logs</text><line style="stroke:#888888;stroke-width:0.5;" x1="695.5" x2="882.9063" y1="358.3125" y2="358.3125"/><ellipse cx="705.5" cy="372.6172" fill="none" rx="3" ry="3" style="stroke:#038048;stroke-width:1;"/><text fill="#000000" font-family="sans-serif" font-size="14" lengthAdjust="spacing" textLength="101.1514" x="714.5" y="376.8457">id : BIGINT {PK}</text><text fill="#000000" font-family="sans-serif" font-size="14" lengthAdjust="spacing" textLength="157.958" x="714.5" y="394.4551">execution_status : ENUM</text><text fill="#000000" font-family="sans-serif" font-size="14" lengthAdjust="spacing" textLength="154.7998" x="714.5" y="412.0645">start_time : TIMESTAMP</text><text fill="#000000" font-family="sans-serif" font-size="14" lengthAdjust="spacing" textLength="150.9307" x="714.5" y="429.6738">end_time : TIMESTAMP</text><text fill="#000000" font-family="sans-serif" font-size="14" lengthAdjust="spacing" textLength="159.4961" x="714.5" y="447.2832">created_at : TIMESTAMP</text><text fill="#000000" font-family="sans-serif" font-size="14" lengthAdjust="spacing" textLength="163.4063" x="714.5" y="464.8926">updated_at : TIMESTAMP</text></g><!--class cluster_status--><g class="entity" data-entity="cluster_status" data-source-line="37" data-uid="ent0004" id="entity_cluster_status"><rect fill="#FFFDF7" height="191.5781" rx="2.5" ry="2.5" style="stroke:#888888;stroke-width:0.5;" width="208.0684" x="7" y="45.6094"/><ellipse cx="62.7617" cy="66.9609" fill="#ADD1B2" rx="11" ry="11" style="stroke:#181818;stroke-width:1;"/><path d="M65.5273,62.8359 Q65.6836,62.6172 65.8711,62.5078 Q66.0586,62.3984 66.2773,62.3984 Q66.6523,62.3984 66.8867,62.6641 Q67.1211,62.9141 67.1211,63.5234 L67.1211,64.9766 Q67.1211,65.5859 66.8867,65.8516 Q66.6523,66.1172 66.2773,66.1172 Q65.9336,66.1172 65.7305,65.9141 Q65.5273,65.7266 65.418,65.2109 Q65.3711,64.8516 65.1836,64.6641 Q64.8555,64.2891 64.2461,64.0703 Q63.6367,63.8516 63.0117,63.8516 Q62.2461,63.8516 61.6055,64.1797 Q60.9805,64.5078 60.4805,65.2578 Q59.9961,66.0078 59.9961,67.0391 L59.9961,68.1328 Q59.9961,69.3672 60.8867,70.1953 Q61.7773,71.0078 63.3711,71.0078 Q64.3086,71.0078 64.9648,70.7578 Q65.3555,70.6016 65.7773,70.1641 Q66.043,69.8984 66.1836,69.8203 Q66.3398,69.7422 66.543,69.7422 Q66.8711,69.7422 67.1211,70.0078 Q67.3867,70.2578 67.3867,70.6016 Q67.3867,70.9453 67.043,71.3516 Q66.543,71.9297 65.7461,72.2578 Q64.668,72.7109 63.3711,72.7109 Q61.8555,72.7109 60.6523,72.0859 Q59.668,71.5859 58.9805,70.5234 Q58.293,69.4453 58.293,68.1641 L58.293,67.0078 Q58.293,65.6797 58.9023,64.5391 Q59.5273,63.3828 60.6211,62.7734 Q61.7148,62.1484 62.9492,62.1484 Q63.6836,62.1484 64.3242,62.3203 Q64.9805,62.4766 65.5273,62.8359 Z " fill="#000000"/><text fill="#000000" font-family="sans-serif" font-size="12" font-style="italic" lengthAdjust="spacing" textLength="92.0449" x="81.2617" y="63.0664">&#171;(T,#AEE) table&#187;</text><text fill="#000000" font-family="sans-serif" font-size="14" lengthAdjust="spacing" textLength="86.3721" x="84.0981" y="80.2363">cluster_status</text><line style="stroke:#888888;stroke-width:0.5;" x1="8" x2="214.0684" y1="88.3125" y2="88.3125"/><ellipse cx="18" cy="102.6172" fill="none" rx="3" ry="3" style="stroke:#038048;stroke-width:1;"/><text fill="#000000" font-family="sans-serif" font-size="14" lengthAdjust="spacing" textLength="101.1514" x="27" y="106.8457">id : BIGINT {PK}</text><text fill="#000000" font-family="sans-serif" font-size="14" lengthAdjust="spacing" textLength="115.165" x="27" y="124.4551">node_role : ENUM</text><text fill="#000000" font-family="sans-serif" font-size="14" lengthAdjust="spacing" textLength="129.1719" x="27" y="142.0645">node_status : ENUM</text><text fill="#000000" font-family="sans-serif" font-size="14" lengthAdjust="spacing" textLength="182.0684" x="27" y="159.6738">last_heartbeat : TIMESTAMP</text><text fill="#000000" font-family="sans-serif" font-size="14" lengthAdjust="spacing" textLength="114.3857" x="27" y="177.2832">health_score : INT</text><text fill="#000000" font-family="sans-serif" font-size="14" lengthAdjust="spacing" textLength="110.4893" x="27" y="194.8926">alerts_count : INT</text><text fill="#000000" font-family="sans-serif" font-size="14" lengthAdjust="spacing" textLength="159.4961" x="27" y="212.502">created_at : TIMESTAMP</text><text fill="#000000" font-family="sans-serif" font-size="14" lengthAdjust="spacing" textLength="163.4063" x="27" y="230.1113">updated_at : TIMESTAMP</text></g><!--class system_logs--><g class="entity" data-entity="system_logs" data-source-line="52" data-uid="ent0005" id="entity_system_logs"><rect fill="#FFFDF7" height="138.75" rx="2.5" ry="2.5" style="stroke:#888888;stroke-width:0.5;" width="185.4961" x="250.5" y="72.1094"/><ellipse cx="294.9756" cy="93.4609" fill="#ADD1B2" rx="11" ry="11" style="stroke:#181818;stroke-width:1;"/><path d="M297.7412,89.3359 Q297.8975,89.1172 298.085,89.0078 Q298.2725,88.8984 298.4912,88.8984 Q298.8662,88.8984 299.1006,89.1641 Q299.335,89.4141 299.335,90.0234 L299.335,91.4766 Q299.335,92.0859 299.1006,92.3516 Q298.8662,92.6172 298.4912,92.6172 Q298.1475,92.6172 297.9443,92.4141 Q297.7412,92.2266 297.6318,91.7109 Q297.585,91.3516 297.3975,91.1641 Q297.0693,90.7891 296.46,90.5703 Q295.8506,90.3516 295.2256,90.3516 Q294.46,90.3516 293.8193,90.6797 Q293.1943,91.0078 292.6943,91.7578 Q292.21,92.5078 292.21,93.5391 L292.21,94.6328 Q292.21,95.8672 293.1006,96.6953 Q293.9912,97.5078 295.585,97.5078 Q296.5225,97.5078 297.1787,97.2578 Q297.5693,97.1016 297.9912,96.6641 Q298.2568,96.3984 298.3975,96.3203 Q298.5537,96.2422 298.7568,96.2422 Q299.085,96.2422 299.335,96.5078 Q299.6006,96.7578 299.6006,97.1016 Q299.6006,97.4453 299.2568,97.8516 Q298.7568,98.4297 297.96,98.7578 Q296.8818,99.2109 295.585,99.2109 Q294.0693,99.2109 292.8662,98.5859 Q291.8818,98.0859 291.1943,97.0234 Q290.5068,95.9453 290.5068,94.6641 L290.5068,93.5078 Q290.5068,92.1797 291.1162,91.0391 Q291.7412,89.8828 292.835,89.2734 Q293.9287,88.6484 295.1631,88.6484 Q295.8975,88.6484 296.5381,88.8203 Q297.1943,88.9766 297.7412,89.3359 Z " fill="#000000"/><text fill="#000000" font-family="sans-serif" font-size="12" font-style="italic" lengthAdjust="spacing" textLength="92.0449" x="313.4756" y="89.5664">&#171;(T,#AEE) table&#187;</text><text fill="#000000" font-family="sans-serif" font-size="14" lengthAdjust="spacing" textLength="77.8066" x="320.5947" y="106.7363">system_logs</text><line style="stroke:#888888;stroke-width:0.5;" x1="251.5" x2="434.9961" y1="114.8125" y2="114.8125"/><ellipse cx="261.5" cy="129.1172" fill="none" rx="3" ry="3" style="stroke:#038048;stroke-width:1;"/><text fill="#000000" font-family="sans-serif" font-size="14" lengthAdjust="spacing" textLength="101.1514" x="270.5" y="133.3457">id : BIGINT {PK}</text><text fill="#000000" font-family="sans-serif" font-size="14" lengthAdjust="spacing" textLength="157.9102" x="270.5" y="150.9551">timestamp : TIMESTAMP</text><text fill="#000000" font-family="sans-serif" font-size="14" lengthAdjust="spacing" textLength="108.1514" x="270.5" y="168.5645">log_level : ENUM</text><text fill="#000000" font-family="sans-serif" font-size="14" lengthAdjust="spacing" textLength="143.9512" x="270.5" y="186.1738">processed : BOOLEAN</text><text fill="#000000" font-family="sans-serif" font-size="14" lengthAdjust="spacing" textLength="159.4961" x="270.5" y="203.7832">created_at : TIMESTAMP</text></g><!--class system_configs--><g class="entity" data-entity="system_configs" data-source-line="65" data-uid="ent0006" id="entity_system_configs"><rect fill="#FFFDF7" height="121.1406" rx="2.5" ry="2.5" style="stroke:#888888;stroke-width:0.5;" width="189.4063" x="470.5" y="81.1094"/><ellipse cx="512.9157" cy="102.4609" fill="#ADD1B2" rx="11" ry="11" style="stroke:#181818;stroke-width:1;"/><path d="M515.6813,98.3359 Q515.8376,98.1172 516.0251,98.0078 Q516.2126,97.8984 516.4313,97.8984 Q516.8063,97.8984 517.0407,98.1641 Q517.2751,98.4141 517.2751,99.0234 L517.2751,100.4766 Q517.2751,101.0859 517.0407,101.3516 Q516.8063,101.6172 516.4313,101.6172 Q516.0876,101.6172 515.8845,101.4141 Q515.6813,101.2266 515.572,100.7109 Q515.5251,100.3516 515.3376,100.1641 Q515.0095,99.7891 514.4001,99.5703 Q513.7907,99.3516 513.1657,99.3516 Q512.4001,99.3516 511.7595,99.6797 Q511.1345,100.0078 510.6345,100.7578 Q510.1501,101.5078 510.1501,102.5391 L510.1501,103.6328 Q510.1501,104.8672 511.0407,105.6953 Q511.9313,106.5078 513.5251,106.5078 Q514.4626,106.5078 515.1188,106.2578 Q515.5095,106.1016 515.9313,105.6641 Q516.197,105.3984 516.3376,105.3203 Q516.4938,105.2422 516.697,105.2422 Q517.0251,105.2422 517.2751,105.5078 Q517.5407,105.7578 517.5407,106.1016 Q517.5407,106.4453 517.197,106.8516 Q516.697,107.4297 515.9001,107.7578 Q514.822,108.2109 513.5251,108.2109 Q512.0095,108.2109 510.8063,107.5859 Q509.822,107.0859 509.1345,106.0234 Q508.447,104.9453 508.447,103.6641 L508.447,102.5078 Q508.447,101.1797 509.0563,100.0391 Q509.6813,98.8828 510.7751,98.2734 Q511.8688,97.6484 513.1032,97.6484 Q513.8376,97.6484 514.4782,97.8203 Q515.1345,97.9766 515.6813,98.3359 Z " fill="#000000"/><text fill="#000000" font-family="sans-serif" font-size="12" font-style="italic" lengthAdjust="spacing" textLength="92.707" x="534.8958" y="98.5664">&#171;(T,#CEA) table&#187;</text><text fill="#000000" font-family="sans-serif" font-size="14" lengthAdjust="spacing" textLength="96.4824" x="533.0081" y="115.7363">system_configs</text><line style="stroke:#888888;stroke-width:0.5;" x1="471.5" x2="658.9063" y1="123.8125" y2="123.8125"/><ellipse cx="481.5" cy="138.1172" fill="none" rx="3" ry="3" style="stroke:#038048;stroke-width:1;"/><text fill="#000000" font-family="sans-serif" font-size="14" lengthAdjust="spacing" textLength="101.1514" x="490.5" y="142.3457">id : BIGINT {PK}</text><text fill="#000000" font-family="sans-serif" font-size="14" lengthAdjust="spacing" textLength="133.8271" x="490.5" y="159.9551">is_active : BOOLEAN</text><text fill="#000000" font-family="sans-serif" font-size="14" lengthAdjust="spacing" textLength="159.4961" x="490.5" y="177.5645">created_at : TIMESTAMP</text><text fill="#000000" font-family="sans-serif" font-size="14" lengthAdjust="spacing" textLength="163.4063" x="490.5" y="195.1738">updated_at : TIMESTAMP</text></g><!--class alert_rules--><g class="entity" data-entity="alert_rules" data-source-line="75" data-uid="ent0007" id="entity_alert_rules"><rect fill="#FFFDF7" height="138.75" rx="2.5" ry="2.5" style="stroke:#888888;stroke-width:0.5;" width="189.4063" x="16.5" y="324.1094"/><ellipse cx="62.5996" cy="345.4609" fill="#ADD1B2" rx="11" ry="11" style="stroke:#181818;stroke-width:1;"/><path d="M65.3652,341.3359 Q65.5215,341.1172 65.709,341.0078 Q65.8965,340.8984 66.1152,340.8984 Q66.4902,340.8984 66.7246,341.1641 Q66.959,341.4141 66.959,342.0234 L66.959,343.4766 Q66.959,344.0859 66.7246,344.3516 Q66.4902,344.6172 66.1152,344.6172 Q65.7715,344.6172 65.5684,344.4141 Q65.3652,344.2266 65.2559,343.7109 Q65.209,343.3516 65.0215,343.1641 Q64.6934,342.7891 64.084,342.5703 Q63.4746,342.3516 62.8496,342.3516 Q62.084,342.3516 61.4434,342.6797 Q60.8184,343.0078 60.3184,343.7578 Q59.834,344.5078 59.834,345.5391 L59.834,346.6328 Q59.834,347.8672 60.7246,348.6953 Q61.6152,349.5078 63.209,349.5078 Q64.1465,349.5078 64.8027,349.2578 Q65.1934,349.1016 65.6152,348.6641 Q65.8809,348.3984 66.0215,348.3203 Q66.1777,348.2422 66.3809,348.2422 Q66.709,348.2422 66.959,348.5078 Q67.2246,348.7578 67.2246,349.1016 Q67.2246,349.4453 66.8809,349.8516 Q66.3809,350.4297 65.584,350.7578 Q64.5059,351.2109 63.209,351.2109 Q61.6934,351.2109 60.4902,350.5859 Q59.5059,350.0859 58.8184,349.0234 Q58.1309,347.9453 58.1309,346.6641 L58.1309,345.5078 Q58.1309,344.1797 58.7402,343.0391 Q59.3652,341.8828 60.459,341.2734 Q61.5527,340.6484 62.7871,340.6484 Q63.5215,340.6484 64.1621,340.8203 Q64.8184,340.9766 65.3652,341.3359 Z " fill="#000000"/><text fill="#000000" font-family="sans-serif" font-size="12" font-style="italic" lengthAdjust="spacing" textLength="92.707" x="81.0996" y="341.5664">&#171;(T,#CEA) table&#187;</text><text fill="#000000" font-family="sans-serif" font-size="14" lengthAdjust="spacing" textLength="65.3652" x="94.7705" y="358.7363">alert_rules</text><line style="stroke:#888888;stroke-width:0.5;" x1="17.5" x2="204.9063" y1="366.8125" y2="366.8125"/><ellipse cx="27.5" cy="381.1172" fill="none" rx="3" ry="3" style="stroke:#038048;stroke-width:1;"/><text fill="#000000" font-family="sans-serif" font-size="14" lengthAdjust="spacing" textLength="101.1514" x="36.5" y="385.3457">id : BIGINT {PK}</text><text fill="#000000" font-family="sans-serif" font-size="14" lengthAdjust="spacing" textLength="101.124" x="36.5" y="402.9551">severity : ENUM</text><text fill="#000000" font-family="sans-serif" font-size="14" lengthAdjust="spacing" textLength="147.082" x="36.5" y="420.5645">is_enabled : BOOLEAN</text><text fill="#000000" font-family="sans-serif" font-size="14" lengthAdjust="spacing" textLength="159.4961" x="36.5" y="438.1738">created_at : TIMESTAMP</text><text fill="#000000" font-family="sans-serif" font-size="14" lengthAdjust="spacing" textLength="163.4063" x="36.5" y="455.7832">updated_at : TIMESTAMP</text></g><!--class users--><g class="entity" data-entity="users" data-source-line="87" data-uid="ent0008" id="entity_users"><rect fill="#FFFDF7" height="156.3594" rx="2.5" ry="2.5" style="stroke:#888888;stroke-width:0.5;" width="189.4063" x="918.5" y="63.6094"/><ellipse cx="964.5996" cy="84.9609" fill="#ADD1B2" rx="11" ry="11" style="stroke:#181818;stroke-width:1;"/><path d="M967.3652,80.8359 Q967.5215,80.6172 967.709,80.5078 Q967.8965,80.3984 968.1152,80.3984 Q968.4902,80.3984 968.7246,80.6641 Q968.959,80.9141 968.959,81.5234 L968.959,82.9766 Q968.959,83.5859 968.7246,83.8516 Q968.4902,84.1172 968.1152,84.1172 Q967.7715,84.1172 967.5684,83.9141 Q967.3652,83.7266 967.2559,83.2109 Q967.209,82.8516 967.0215,82.6641 Q966.6934,82.2891 966.084,82.0703 Q965.4746,81.8516 964.8496,81.8516 Q964.084,81.8516 963.4434,82.1797 Q962.8184,82.5078 962.3184,83.2578 Q961.834,84.0078 961.834,85.0391 L961.834,86.1328 Q961.834,87.3672 962.7246,88.1953 Q963.6152,89.0078 965.209,89.0078 Q966.1465,89.0078 966.8027,88.7578 Q967.1934,88.6016 967.6152,88.1641 Q967.8809,87.8984 968.0215,87.8203 Q968.1777,87.7422 968.3809,87.7422 Q968.709,87.7422 968.959,88.0078 Q969.2246,88.2578 969.2246,88.6016 Q969.2246,88.9453 968.8809,89.3516 Q968.3809,89.9297 967.584,90.2578 Q966.5059,90.7109 965.209,90.7109 Q963.6934,90.7109 962.4902,90.0859 Q961.5059,89.5859 960.8184,88.5234 Q960.1309,87.4453 960.1309,86.1641 L960.1309,85.0078 Q960.1309,83.6797 960.7402,82.5391 Q961.3652,81.3828 962.459,80.7734 Q963.5527,80.1484 964.7871,80.1484 Q965.5215,80.1484 966.1621,80.3203 Q966.8184,80.4766 967.3652,80.8359 Z " fill="#000000"/><text fill="#000000" font-family="sans-serif" font-size="12" font-style="italic" lengthAdjust="spacing" textLength="92.707" x="983.0996" y="81.0664">&#171;(T,#EAC) table&#187;</text><text fill="#000000" font-family="sans-serif" font-size="14" lengthAdjust="spacing" textLength="34.2344" x="1012.3359" y="98.2363">users</text><line style="stroke:#888888;stroke-width:0.5;" x1="919.5" x2="1106.9063" y1="106.3125" y2="106.3125"/><ellipse cx="929.5" cy="120.6172" fill="none" rx="3" ry="3" style="stroke:#038048;stroke-width:1;"/><text fill="#000000" font-family="sans-serif" font-size="14" lengthAdjust="spacing" textLength="101.1514" x="938.5" y="124.8457">id : BIGINT {PK}</text><text fill="#000000" font-family="sans-serif" font-size="14" lengthAdjust="spacing" textLength="76.2344" x="938.5" y="142.4551">role : ENUM</text><text fill="#000000" font-family="sans-serif" font-size="14" lengthAdjust="spacing" textLength="133.8271" x="938.5" y="160.0645">is_active : BOOLEAN</text><text fill="#000000" font-family="sans-serif" font-size="14" lengthAdjust="spacing" textLength="152.4893" x="938.5" y="177.6738">last_login : TIMESTAMP</text><text fill="#000000" font-family="sans-serif" font-size="14" lengthAdjust="spacing" textLength="159.4961" x="938.5" y="195.2832">created_at : TIMESTAMP</text><text fill="#000000" font-family="sans-serif" font-size="14" lengthAdjust="spacing" textLength="163.4063" x="938.5" y="212.8926">updated_at : TIMESTAMP</text></g><!--class audit_logs--><g class="entity" data-entity="audit_logs" data-source-line="98" data-uid="ent0009" id="entity_audit_logs"><rect fill="#FFFDF7" height="103.5313" rx="2.5" ry="2.5" style="stroke:#888888;stroke-width:0.5;" width="185.4961" x="920.5" y="341.6094"/><ellipse cx="964.6551" cy="362.9609" fill="#ADD1B2" rx="11" ry="11" style="stroke:#181818;stroke-width:1;"/><path d="M967.4207,358.8359 Q967.577,358.6172 967.7645,358.5078 Q967.952,358.3984 968.1707,358.3984 Q968.5457,358.3984 968.7801,358.6641 Q969.0145,358.9141 969.0145,359.5234 L969.0145,360.9766 Q969.0145,361.5859 968.7801,361.8516 Q968.5457,362.1172 968.1707,362.1172 Q967.827,362.1172 967.6238,361.9141 Q967.4207,361.7266 967.3113,361.2109 Q967.2645,360.8516 967.077,360.6641 Q966.7488,360.2891 966.1395,360.0703 Q965.5301,359.8516 964.9051,359.8516 Q964.1395,359.8516 963.4988,360.1797 Q962.8738,360.5078 962.3738,361.2578 Q961.8895,362.0078 961.8895,363.0391 L961.8895,364.1328 Q961.8895,365.3672 962.7801,366.1953 Q963.6707,367.0078 965.2645,367.0078 Q966.202,367.0078 966.8582,366.7578 Q967.2488,366.6016 967.6707,366.1641 Q967.9363,365.8984 968.077,365.8203 Q968.2332,365.7422 968.4363,365.7422 Q968.7645,365.7422 969.0145,366.0078 Q969.2801,366.2578 969.2801,366.6016 Q969.2801,366.9453 968.9363,367.3516 Q968.4363,367.9297 967.6395,368.2578 Q966.5613,368.7109 965.2645,368.7109 Q963.7488,368.7109 962.5457,368.0859 Q961.5613,367.5859 960.8738,366.5234 Q960.1863,365.4453 960.1863,364.1641 L960.1863,363.0078 Q960.1863,361.6797 960.7957,360.5391 Q961.4207,359.3828 962.5145,358.7734 Q963.6082,358.1484 964.8426,358.1484 Q965.577,358.1484 966.2176,358.3203 Q966.8738,358.4766 967.4207,358.8359 Z " fill="#000000"/><text fill="#000000" font-family="sans-serif" font-size="12" font-style="italic" lengthAdjust="spacing" textLength="92.707" x="983.134" y="359.0664">&#171;(T,#EAC) table&#187;</text><text fill="#000000" font-family="sans-serif" font-size="14" lengthAdjust="spacing" textLength="63.8271" x="997.5739" y="376.2363">audit_logs</text><line style="stroke:#888888;stroke-width:0.5;" x1="921.5" x2="1104.9961" y1="384.3125" y2="384.3125"/><ellipse cx="931.5" cy="398.6172" fill="none" rx="3" ry="3" style="stroke:#038048;stroke-width:1;"/><text fill="#000000" font-family="sans-serif" font-size="14" lengthAdjust="spacing" textLength="101.1514" x="940.5" y="402.8457">id : BIGINT {PK}</text><text fill="#000000" font-family="sans-serif" font-size="14" lengthAdjust="spacing" textLength="135.3857" x="940.5" y="420.4551">user_id : BIGINT {FK}</text><text fill="#000000" font-family="sans-serif" font-size="14" lengthAdjust="spacing" textLength="159.4961" x="940.5" y="438.0645">created_at : TIMESTAMP</text></g><!--class repair_templates--><g class="entity" data-entity="repair_templates" data-source-line="110" data-uid="ent0010" id="entity_repair_templates"><rect fill="#FFFDF7" height="138.75" rx="2.5" ry="2.5" style="stroke:#888888;stroke-width:0.5;" width="189.4063" x="240.5" y="324.1094"/><ellipse cx="279.4089" cy="345.4609" fill="#ADD1B2" rx="11" ry="11" style="stroke:#181818;stroke-width:1;"/><path d="M282.1745,341.3359 Q282.3308,341.1172 282.5183,341.0078 Q282.7058,340.8984 282.9245,340.8984 Q283.2995,340.8984 283.5339,341.1641 Q283.7683,341.4141 283.7683,342.0234 L283.7683,343.4766 Q283.7683,344.0859 283.5339,344.3516 Q283.2995,344.6172 282.9245,344.6172 Q282.5808,344.6172 282.3776,344.4141 Q282.1745,344.2266 282.0651,343.7109 Q282.0183,343.3516 281.8308,343.1641 Q281.5026,342.7891 280.8933,342.5703 Q280.2839,342.3516 279.6589,342.3516 Q278.8933,342.3516 278.2526,342.6797 Q277.6276,343.0078 277.1276,343.7578 Q276.6433,344.5078 276.6433,345.5391 L276.6433,346.6328 Q276.6433,347.8672 277.5339,348.6953 Q278.4245,349.5078 280.0183,349.5078 Q280.9558,349.5078 281.612,349.2578 Q282.0026,349.1016 282.4245,348.6641 Q282.6901,348.3984 282.8308,348.3203 Q282.987,348.2422 283.1901,348.2422 Q283.5183,348.2422 283.7683,348.5078 Q284.0339,348.7578 284.0339,349.1016 Q284.0339,349.4453 283.6901,349.8516 Q283.1901,350.4297 282.3933,350.7578 Q281.3151,351.2109 280.0183,351.2109 Q278.5026,351.2109 277.2995,350.5859 Q276.3151,350.0859 275.6276,349.0234 Q274.9401,347.9453 274.9401,346.6641 L274.9401,345.5078 Q274.9401,344.1797 275.5495,343.0391 Q276.1745,341.8828 277.2683,341.2734 Q278.362,340.6484 279.5964,340.6484 Q280.3308,340.6484 280.9714,340.8203 Q281.6276,340.9766 282.1745,341.3359 Z " fill="#000000"/><text fill="#000000" font-family="sans-serif" font-size="12" font-style="italic" lengthAdjust="spacing" textLength="92.0332" x="304.8431" y="341.5664">&#171;(T,#DFE) table&#187;</text><text fill="#000000" font-family="sans-serif" font-size="14" lengthAdjust="spacing" textLength="104.2754" x="298.722" y="358.7363">repair_templates</text><line style="stroke:#888888;stroke-width:0.5;" x1="241.5" x2="428.9063" y1="366.8125" y2="366.8125"/><ellipse cx="251.5" cy="381.1172" fill="none" rx="3" ry="3" style="stroke:#038048;stroke-width:1;"/><text fill="#000000" font-family="sans-serif" font-size="14" lengthAdjust="spacing" textLength="101.1514" x="260.5" y="385.3457">id : BIGINT {PK}</text><text fill="#000000" font-family="sans-serif" font-size="14" lengthAdjust="spacing" textLength="111.2412" x="260.5" y="402.9551">risk_level : ENUM</text><text fill="#000000" font-family="sans-serif" font-size="14" lengthAdjust="spacing" textLength="133.8271" x="260.5" y="420.5645">is_active : BOOLEAN</text><text fill="#000000" font-family="sans-serif" font-size="14" lengthAdjust="spacing" textLength="159.4961" x="260.5" y="438.1738">created_at : TIMESTAMP</text><text fill="#000000" font-family="sans-serif" font-size="14" lengthAdjust="spacing" textLength="163.4063" x="260.5" y="455.7832">updated_at : TIMESTAMP</text></g><!--class notification_configs--><g class="entity" data-entity="notification_configs" data-source-line="121" data-uid="ent0011" id="entity_notification_configs"><rect fill="#FFFDF7" height="138.75" rx="2.5" ry="2.5" style="stroke:#888888;stroke-width:0.5;" width="189.4063" x="464.5" y="324.1094"/><ellipse cx="496.749" cy="345.4609" fill="#ADD1B2" rx="11" ry="11" style="stroke:#181818;stroke-width:1;"/><path d="M499.5146,341.3359 Q499.6708,341.1172 499.8583,341.0078 Q500.0458,340.8984 500.2646,340.8984 Q500.6396,340.8984 500.874,341.1641 Q501.1083,341.4141 501.1083,342.0234 L501.1083,343.4766 Q501.1083,344.0859 500.874,344.3516 Q500.6396,344.6172 500.2646,344.6172 Q499.9208,344.6172 499.7177,344.4141 Q499.5146,344.2266 499.4052,343.7109 Q499.3583,343.3516 499.1708,343.1641 Q498.8427,342.7891 498.2333,342.5703 Q497.624,342.3516 496.999,342.3516 Q496.2333,342.3516 495.5927,342.6797 Q494.9677,343.0078 494.4677,343.7578 Q493.9833,344.5078 493.9833,345.5391 L493.9833,346.6328 Q493.9833,347.8672 494.874,348.6953 Q495.7646,349.5078 497.3583,349.5078 Q498.2958,349.5078 498.9521,349.2578 Q499.3427,349.1016 499.7646,348.6641 Q500.0302,348.3984 500.1708,348.3203 Q500.3271,348.2422 500.5302,348.2422 Q500.8583,348.2422 501.1083,348.5078 Q501.374,348.7578 501.374,349.1016 Q501.374,349.4453 501.0302,349.8516 Q500.5302,350.4297 499.7333,350.7578 Q498.6552,351.2109 497.3583,351.2109 Q495.8427,351.2109 494.6396,350.5859 Q493.6552,350.0859 492.9677,349.0234 Q492.2802,347.9453 492.2802,346.6641 L492.2802,345.5078 Q492.2802,344.1797 492.8896,343.0391 Q493.5146,341.8828 494.6083,341.2734 Q495.7021,340.6484 496.9365,340.6484 Q497.6708,340.6484 498.3115,340.8203 Q498.9677,340.9766 499.5146,341.3359 Z " fill="#000000"/><text fill="#000000" font-family="sans-serif" font-size="12" font-style="italic" lengthAdjust="spacing" textLength="92.0332" x="528.1031" y="341.5664">&#171;(T,#DFE) table&#187;</text><text fill="#000000" font-family="sans-serif" font-size="14" lengthAdjust="spacing" textLength="119.0752" x="514.5821" y="358.7363">notification_configs</text><line style="stroke:#888888;stroke-width:0.5;" x1="465.5" x2="652.9063" y1="366.8125" y2="366.8125"/><ellipse cx="475.5" cy="381.1172" fill="none" rx="3" ry="3" style="stroke:#038048;stroke-width:1;"/><text fill="#000000" font-family="sans-serif" font-size="14" lengthAdjust="spacing" textLength="101.1514" x="484.5" y="385.3457">id : BIGINT {PK}</text><text fill="#000000" font-family="sans-serif" font-size="14" lengthAdjust="spacing" textLength="154.0684" x="484.5" y="402.9551">notification_type : ENUM</text><text fill="#000000" font-family="sans-serif" font-size="14" lengthAdjust="spacing" textLength="147.082" x="484.5" y="420.5645">is_enabled : BOOLEAN</text><text fill="#000000" font-family="sans-serif" font-size="14" lengthAdjust="spacing" textLength="159.4961" x="484.5" y="438.1738">created_at : TIMESTAMP</text><text fill="#000000" font-family="sans-serif" font-size="14" lengthAdjust="spacing" textLength="163.4063" x="484.5" y="455.7832">updated_at : TIMESTAMP</text></g><!--link fault_records to exec_logs--><g class="link" data-entity-1="fault_records" data-entity-2="exec_logs" data-source-line="131" data-uid="lnk12" id="link_fault_records_exec_logs"><path codeLine="131" d="M787.39,211.3394 C787.01,234.8894 786.77,261.3994 787,285.6094 C787.09,295.2694 787.23,305.4194 787.39,315.4694" fill="none" id="fault_records-exec_logs" style="stroke:#181818;stroke-width:1;"/><text fill="#000000" font-family="sans-serif" font-size="13" lengthAdjust="spacing" textLength="181.7461" x="788" y="282.1045">fault_id -&gt; fault_records.fault_id</text><text fill="#000000" font-family="sans-serif" font-size="13" lengthAdjust="spacing" textLength="7.23" x="779.8946" y="232.2718">1</text><text fill="#000000" font-family="sans-serif" font-size="13" lengthAdjust="spacing" textLength="5.0591" x="781.9817" y="304.7539">*</text></g><!--link users to audit_logs--><g class="link" data-entity-1="users" data-entity-2="audit_logs" data-source-line="132" data-uid="lnk13" id="link_users_audit_logs"><path codeLine="132" d="M1013,219.6594 C1013,259.2594 1013,306.4194 1013,341.4894" fill="none" id="users-audit_logs" style="stroke:#181818;stroke-width:1;"/><text fill="#000000" font-family="sans-serif" font-size="13" lengthAdjust="spacing" textLength="134.7798" x="1014" y="282.1045">id -&gt; audit_logs.user_id</text><text fill="#000000" font-family="sans-serif" font-size="13" lengthAdjust="spacing" textLength="7.23" x="1005.658" y="241.3558">1</text><text fill="#000000" font-family="sans-serif" font-size="13" lengthAdjust="spacing" textLength="5.0591" x="1007.6177" y="330.5878">*</text></g><!--SRC=[jLRBJXH15DttLrHm8QWOnH0DCIJZqAD4G8BejbDqNsOgT7TrgghH2I7H68neD2xGXOyWqHZTa1XZ9FZw6MP6Llw2jwhdsVDmG9tTt5EtkiwvzvugnPGFfFnaRV_PY_BhM-LF3oeVlrI-R19xZfIUVxSikSJ2Y0eQ45cW7h_1mZnPfBw49iJrgPHanIBa0dMNyeB7ePVbFXVaI2wNcyYTrGWN7eXgz9pvMQjMWNb00b05xadBEahAhtPAF-xixJmhtT_wkVNEIdPUfB6l704kxY79-VDaSFx4aOnj3n555_3uu-FcuyS9yyWOkJ1vSN9cdgpCNburmIJRGDSpSzbBcRd1CoD3PEMQmHDK5IDemaTF3TKX7vR1HyoUkJQDGMK4QomTEMNMIaLLB1lByDWi7qBxfW8YBXI8Di0LG1Lu3bK8pKzEsrVdCzEp2CIHrmbOjQhgm4rm7P_d3wwCoUmjJ3kQCwZBWu26NcVXzBwnOZnqqhBWVu5gim1I947lrHxc4GYg-3zKo_LZYVBNJdPGoKBkGQieU9wQP0OKtFH7bR09fLLmezY99SthTHDsTd8wCpKuUc94ymeWuABO3VMONEg68Jlb503rNO0sLJ3kgu8ZSO9qAbBIFUg3KD9nSLnLFNXeOMKHTGqEruYOrBKFTLUWW46KfiIbQieudSmXYnpgUGAaRCP6pOY2M6PkUxVgZwU6F1BSnIt0dFNAbIaxCzDTcbLjNFjh3olVjYlRMvN7Tnl6LTN4vU4YQyYIjJFzoPBaEKjGJ16jQLDTa1h2aMH2yAnvxAKslamwr5Li6VeXz-UwcovoHEp3GGdg72Ua0RINqK0TlGKl2y7SBcaIooYOAZOgYMGXr2Vn_fRjKLBPU5U-zpbTunZxgixSpcJxOQvpKWoQR0G2olmk5MzrbywbD4w0NSt25Bd3rpZsc6ePxGCGTLhYkHu2Q4zozRtHeI50ybYuNPgYZhQOo9yjeTT4bzVVbpuyQTGPBsxAX8Fp7FcOL5TY8jUNoTNokdHkZsU8qAQVCgZUCxnG_7VtPSWLMsHe9lewJnbPdzIhBjMPUCl-LVx_ONPBQn_nOVlhwxtIvkxUxgFIcwVx6zkLtRVbbvjxEu-I1oUk-NbxuzVNTQlrmJbmUe0C3vE1OmDDRwsnnWDfUBprXNgoXbY9DpJbDmtI64bI6w6JrMcnVWC0]--></g></svg>