<?xml version="1.0" encoding="UTF-8"?>
<svg width="1400" height="1800" xmlns="http://www.w3.org/2000/svg">
  <defs>
    <style>
      .title { font-family: 'Microsoft YaHei', Arial, sans-serif; font-size: 24px; font-weight: bold; text-anchor: middle; }
      .package-title { font-family: 'Microsoft YaHei', Arial, sans-serif; font-size: 16px; font-weight: bold; }
      .component-text { font-family: 'Microsoft YaHei', Arial, sans-serif; font-size: 12px; text-anchor: middle; }
      .small-text { font-family: 'Microsoft YaHei', Arial, sans-serif; font-size: 10px; text-anchor: middle; }
      .lightblue { fill: #E3F2FD; stroke: #1976D2; stroke-width: 2; }
      .lightgreen { fill: #E8F5E8; stroke: #388E3C; stroke-width: 2; }
      .lightyellow { fill: #FFF3E0; stroke: #F57C00; stroke-width: 2; }
      .lightred { fill: #FFEBEE; stroke: #D32F2F; stroke-width: 2; }
      .package-border { fill: none; stroke: #666; stroke-width: 2; stroke-dasharray: 5,5; }
      .arrow { stroke: #333; stroke-width: 2; marker-end: url(#arrowhead); }
    </style>
    <marker id="arrowhead" markerWidth="10" markerHeight="7" refX="9" refY="3.5" orient="auto">
      <polygon points="0 0, 10 3.5, 0 7" fill="#333" />
    </marker>
  </defs>
  
  <!-- Background -->
  <rect width="1400" height="1800" fill="#F8F9FA"/>
  
  <!-- Title -->
  <text x="700" y="30" class="title">故障检测系统 - 原型界面设计</text>
  
  <!-- 主界面布局 Package -->
  <rect x="50" y="60" width="600" height="300" class="package-border"/>
  <text x="60" y="80" class="package-title">主界面布局</text>
  
  <!-- 顶部导航栏 -->
  <rect x="70" y="90" width="560" height="80" class="lightblue"/>
  <text x="350" y="110" class="component-text">顶部导航栏</text>
  <rect x="80" y="120" width="60" height="30" fill="white" stroke="#1976D2"/>
  <text x="110" y="138" class="small-text">Logo</text>
  <rect x="150" y="120" width="70" height="30" fill="white" stroke="#1976D2"/>
  <text x="185" y="138" class="small-text">集群状态</text>
  <rect x="230" y="120" width="70" height="30" fill="white" stroke="#1976D2"/>
  <text x="265" y="138" class="small-text">日志查询</text>
  <rect x="310" y="120" width="70" height="30" fill="white" stroke="#1976D2"/>
  <text x="345" y="138" class="small-text">故障诊断</text>
  <rect x="390" y="120" width="70" height="30" fill="white" stroke="#1976D2"/>
  <text x="425" y="138" class="small-text">自动修复</text>
  <rect x="470" y="120" width="70" height="30" fill="white" stroke="#1976D2"/>
  <text x="505" y="138" class="small-text">系统配置</text>
  <rect x="550" y="120" width="70" height="30" fill="white" stroke="#1976D2"/>
  <text x="585" y="138" class="small-text">用户信息</text>
  
  <!-- 侧边栏 -->
  <rect x="70" y="180" width="120" height="160" class="lightgreen"/>
  <text x="130" y="200" class="component-text">侧边栏</text>
  <rect x="80" y="210" width="100" height="20" fill="white" stroke="#388E3C"/>
  <text x="130" y="223" class="small-text">仪表板</text>
  <rect x="80" y="235" width="100" height="20" fill="white" stroke="#388E3C"/>
  <text x="130" y="248" class="small-text">集群监控</text>
  <rect x="80" y="260" width="100" height="20" fill="white" stroke="#388E3C"/>
  <text x="130" y="273" class="small-text">日志管理</text>
  <rect x="80" y="285" width="100" height="20" fill="white" stroke="#388E3C"/>
  <text x="130" y="298" class="small-text">故障处理</text>
  <rect x="80" y="310" width="100" height="20" fill="white" stroke="#388E3C"/>
  <text x="130" y="323" class="small-text">修复历史</text>
  
  <!-- 主内容区 -->
  <rect x="200" y="180" width="430" height="160" class="lightyellow"/>
  <text x="415" y="200" class="component-text">主内容区</text>
  <rect x="210" y="210" width="410" height="120" fill="white" stroke="#F57C00"/>
  <text x="415" y="275" class="component-text">内容展示区域</text>
  
  <!-- 仪表板页面 Package -->
  <rect x="700" y="60" width="650" height="280" class="package-border"/>
  <text x="710" y="80" class="package-title">仪表板页面</text>
  
  <!-- 集群概览卡片 -->
  <rect x="720" y="90" width="200" height="120" class="lightblue"/>
  <text x="820" y="110" class="component-text">集群概览卡片</text>
  <rect x="730" y="120" width="180" height="25" fill="white" stroke="#1976D2"/>
  <text x="820" y="135" class="small-text">节点状态统计</text>
  <rect x="730" y="150" width="180" height="25" fill="white" stroke="#1976D2"/>
  <text x="820" y="165" class="small-text">资源使用率</text>
  <rect x="730" y="180" width="180" height="25" fill="white" stroke="#1976D2"/>
  <text x="820" y="195" class="small-text">告警数量</text>
  
  <!-- 实时监控图表 -->
  <rect x="930" y="90" width="200" height="120" class="lightgreen"/>
  <text x="1030" y="110" class="component-text">实时监控图表</text>
  <rect x="940" y="120" width="180" height="25" fill="white" stroke="#388E3C"/>
  <text x="1030" y="135" class="small-text">CPU使用率趋势</text>
  <rect x="940" y="150" width="180" height="25" fill="white" stroke="#388E3C"/>
  <text x="1030" y="165" class="small-text">内存使用率趋势</text>
  <rect x="940" y="180" width="180" height="25" fill="white" stroke="#388E3C"/>
  <text x="1030" y="195" class="small-text">磁盘I/O趋势</text>
  
  <!-- 最近故障列表 -->
  <rect x="1140" y="90" width="200" height="120" class="lightyellow"/>
  <text x="1240" y="110" class="component-text">最近故障列表</text>
  <rect x="1150" y="120" width="180" height="80" fill="white" stroke="#F57C00"/>
  <text x="1240" y="165" class="small-text">故障ID | 类型 | 时间 | 状态</text>
  
  <!-- 日志查询页面 Package -->
  <rect x="50" y="380" width="650" height="280" class="package-border"/>
  <text x="60" y="400" class="package-title">日志查询页面</text>
  
  <!-- 搜索条件 -->
  <rect x="70" y="410" width="200" height="120" class="lightblue"/>
  <text x="170" y="430" class="component-text">搜索条件</text>
  <rect x="80" y="440" width="180" height="20" fill="white" stroke="#1976D2"/>
  <text x="170" y="453" class="small-text">时间范围选择器</text>
  <rect x="80" y="465" width="180" height="20" fill="white" stroke="#1976D2"/>
  <text x="170" y="478" class="small-text">日志级别筛选</text>
  <rect x="80" y="490" width="180" height="20" fill="white" stroke="#1976D2"/>
  <text x="170" y="503" class="small-text">关键词搜索</text>
  <rect x="80" y="515" width="180" height="20" fill="white" stroke="#1976D2"/>
  <text x="170" y="528" class="small-text">主机筛选</text>
  
  <!-- 日志列表 -->
  <rect x="280" y="410" width="200" height="120" class="lightgreen"/>
  <text x="380" y="430" class="component-text">日志列表</text>
  <rect x="290" y="440" width="180" height="70" fill="white" stroke="#388E3C"/>
  <text x="380" y="478" class="small-text">时间 | 主机 | 级别 | 消息</text>
  <rect x="290" y="515" width="180" height="20" fill="white" stroke="#388E3C"/>
  <text x="380" y="528" class="small-text">分页控件</text>
  
  <!-- 操作按钮 -->
  <rect x="490" y="410" width="200" height="120" class="lightyellow"/>
  <text x="590" y="430" class="component-text">操作按钮</text>
  <rect x="500" y="450" width="180" height="30" fill="white" stroke="#F57C00"/>
  <text x="590" y="468" class="small-text">导出日志</text>
  <rect x="500" y="490" width="180" height="30" fill="white" stroke="#F57C00"/>
  <text x="590" y="508" class="small-text">发起诊断</text>
  
  <!-- 故障诊断页面 Package -->
  <rect x="720" y="380" width="630" height="280" class="package-border"/>
  <text x="730" y="400" class="package-title">故障诊断页面</text>
  
  <!-- 诊断配置 -->
  <rect x="740" y="410" width="180" height="120" class="lightblue"/>
  <text x="830" y="430" class="component-text">诊断配置</text>
  <rect x="750" y="440" width="160" height="20" fill="white" stroke="#1976D2"/>
  <text x="830" y="453" class="small-text">选择日志范围</text>
  <rect x="750" y="465" width="160" height="20" fill="white" stroke="#1976D2"/>
  <text x="830" y="478" class="small-text">诊断类型选择</text>
  <rect x="750" y="490" width="160" height="20" fill="white" stroke="#1976D2"/>
  <text x="830" y="503" class="small-text">AI模型选择</text>
  
  <!-- 诊断进度 -->
  <rect x="930" y="410" width="180" height="120" class="lightgreen"/>
  <text x="1020" y="430" class="component-text">诊断进度</text>
  <rect x="940" y="440" width="160" height="20" fill="white" stroke="#388E3C"/>
  <text x="1020" y="453" class="small-text">进度条</text>
  <rect x="940" y="465" width="160" height="20" fill="white" stroke="#388E3C"/>
  <text x="1020" y="478" class="small-text">当前状态</text>
  <rect x="940" y="490" width="160" height="20" fill="white" stroke="#388E3C"/>
  <text x="1020" y="503" class="small-text">预计时间</text>
  
  <!-- 诊断结果 -->
  <rect x="1120" y="410" width="180" height="120" class="lightyellow"/>
  <text x="1210" y="430" class="component-text">诊断结果</text>
  <rect x="1130" y="440" width="160" height="18" fill="white" stroke="#F57C00"/>
  <text x="1210" y="452" class="small-text">故障类型</text>
  <rect x="1130" y="462" width="160" height="18" fill="white" stroke="#F57C00"/>
  <text x="1210" y="474" class="small-text">原因分析</text>
  <rect x="1130" y="484" width="160" height="18" fill="white" stroke="#F57C00"/>
  <text x="1210" y="496" class="small-text">修复建议</text>
  <rect x="1130" y="506" width="160" height="18" fill="white" stroke="#F57C00"/>
  <text x="1210" y="518" class="small-text">风险等级</text>
  
  <!-- 自动修复页面 Package -->
  <rect x="50" y="700" width="650" height="280" class="package-border"/>
  <text x="60" y="720" class="package-title">自动修复页面</text>
  
  <!-- 修复方案 -->
  <rect x="70" y="730" width="180" height="120" class="lightblue"/>
  <text x="160" y="750" class="component-text">修复方案</text>
  <rect x="80" y="760" width="160" height="20" fill="white" stroke="#1976D2"/>
  <text x="160" y="773" class="small-text">修复脚本预览</text>
  <rect x="80" y="785" width="160" height="20" fill="white" stroke="#1976D2"/>
  <text x="160" y="798" class="small-text">影响范围评估</text>
  <rect x="80" y="810" width="160" height="20" fill="white" stroke="#1976D2"/>
  <text x="160" y="823" class="small-text">回滚方案</text>
  
  <!-- 风险确认 -->
  <rect x="260" y="730" width="180" height="120" class="lightred"/>
  <text x="350" y="750" class="component-text">风险确认</text>
  <rect x="270" y="760" width="160" height="20" fill="white" stroke="#D32F2F"/>
  <text x="350" y="773" class="small-text">风险等级显示</text>
  <rect x="270" y="785" width="160" height="20" fill="white" stroke="#D32F2F"/>
  <text x="350" y="798" class="small-text">确认复选框</text>
  <rect x="270" y="810" width="160" height="20" fill="white" stroke="#D32F2F"/>
  <text x="350" y="823" class="small-text">执行按钮</text>
  
  <!-- 执行监控 -->
  <rect x="450" y="730" width="180" height="120" class="lightgreen"/>
  <text x="540" y="750" class="component-text">执行监控</text>
  <rect x="460" y="760" width="160" height="20" fill="white" stroke="#388E3C"/>
  <text x="540" y="773" class="small-text">执行日志实时显示</text>
  <rect x="460" y="785" width="160" height="20" fill="white" stroke="#388E3C"/>
  <text x="540" y="798" class="small-text">执行状态</text>
  <rect x="460" y="810" width="160" height="20" fill="white" stroke="#388E3C"/>
  <text x="540" y="823" class="small-text">停止按钮</text>
  
  <!-- 弹窗组件 Package -->
  <rect x="720" y="700" width="630" height="280" class="package-border"/>
  <text x="730" y="720" class="package-title">弹窗组件</text>
  
  <!-- 高风险确认弹窗 -->
  <rect x="740" y="730" width="280" height="120" class="lightred"/>
  <text x="880" y="750" class="component-text">高风险确认弹窗</text>
  <rect x="750" y="760" width="120" height="20" fill="white" stroke="#D32F2F"/>
  <text x="810" y="773" class="small-text">警告图标</text>
  <rect x="880" y="760" width="130" height="20" fill="white" stroke="#D32F2F"/>
  <text x="945" y="773" class="small-text">风险说明</text>
  <rect x="750" y="785" width="120" height="20" fill="white" stroke="#D32F2F"/>
  <text x="810" y="798" class="small-text">确认按钮</text>
  <rect x="880" y="785" width="130" height="20" fill="white" stroke="#D32F2F"/>
  <text x="945" y="798" class="small-text">取消按钮</text>
  
  <!-- 执行结果弹窗 -->
  <rect x="1030" y="730" width="280" height="120" class="lightgreen"/>
  <text x="1170" y="750" class="component-text">执行结果弹窗</text>
  <rect x="1040" y="760" width="120" height="20" fill="white" stroke="#388E3C"/>
  <text x="1100" y="773" class="small-text">执行状态图标</text>
  <rect x="1170" y="760" width="130" height="20" fill="white" stroke="#388E3C"/>
  <text x="1235" y="773" class="small-text">结果摘要</text>
  <rect x="1040" y="785" width="120" height="20" fill="white" stroke="#388E3C"/>
  <text x="1100" y="798" class="small-text">详细日志</text>
  <rect x="1170" y="785" width="130" height="20" fill="white" stroke="#388E3C"/>
  <text x="1235" y="798" class="small-text">关闭按钮</text>
  
  <!-- 交互流程 Package -->
  <rect x="50" y="1020" width="650" height="200" class="package-border"/>
  <text x="60" y="1040" class="package-title">交互流程</text>
  
  <!-- 流程箭头 -->
  <line x1="170" y1="1060" x2="270" y2="1060" class="arrow"/>
  <text x="220" y="1055" class="small-text">选择日志发起诊断</text>
  
  <line x1="370" y1="1060" x2="470" y2="1060" class="arrow"/>
  <text x="420" y="1055" class="small-text">诊断完成生成修复方案</text>
  
  <line x1="170" y1="1100" x2="270" y2="1100" class="arrow"/>
  <text x="220" y="1095" class="small-text">高风险修复需确认</text>
  
  <line x1="370" y1="1100" x2="470" y2="1100" class="arrow"/>
  <text x="420" y="1095" class="small-text">确认后开始执行</text>
  
  <line x1="170" y1="1140" x2="270" y2="1140" class="arrow"/>
  <text x="220" y="1135" class="small-text">执行完成显示结果</text>
  
  <line x1="370" y1="1140" x2="470" y2="1140" class="arrow"/>
  <text x="420" y="1135" class="small-text">点击故障查看相关日志</text>
  
  <line x1="170" y1="1180" x2="270" y2="1180" class="arrow"/>
  <text x="220" y="1175" class="small-text">快速修复入口</text>
  
  <!-- 响应式设计说明 Package -->
  <rect x="720" y="1020" width="630" height="200" class="package-border"/>
  <text x="730" y="1040" class="package-title">响应式设计说明</text>
  
  <rect x="740" y="1060" width="590" height="140" fill="#FFFDE7" stroke="#F9A825" stroke-width="2"/>
  <text x="750" y="1080" class="small-text">移动端适配：</text>
  <text x="750" y="1100" class="small-text">- 顶部导航折叠为汉堡菜单</text>
  <text x="750" y="1120" class="small-text">- 侧边栏可收起/展开</text>
  <text x="750" y="1140" class="small-text">- 表格支持横向滚动</text>
  <text x="750" y="1160" class="small-text">- 图表自适应屏幕宽度</text>
  <text x="750" y="1180" class="small-text">- 弹窗全屏显示</text>
</svg>