<?xml version="1.0" encoding="UTF-8"?>
<svg width="1400" height="2000" xmlns="http://www.w3.org/2000/svg" style="background-color: white;">
  <defs>
    <style>
      .title { font-family: 'Microsoft YaHei', Arial, sans-serif; font-size: 24px; font-weight: bold; fill: #333; }
      .section-title { font-family: 'Microsoft YaHei', Arial, sans-serif; font-size: 18px; font-weight: bold; fill: #333; }
      .text { font-family: 'Microsoft YaHei', Arial, sans-serif; font-size: 12px; fill: #333; }
      .small-text { font-family: 'Microsoft YaHei', Arial, sans-serif; font-size: 10px; fill: #666; }
      .primary { fill: #1976D2; }
      .success { fill: #4CAF50; }
      .warning { fill: #FF9800; }
      .danger { fill: #F44336; }
      .light { fill: #F5F5F5; }
      .white { fill: #FFFFFF; }
      .border { stroke: #E0E0E0; stroke-width: 1; fill: none; }
      .primary-border { stroke: #1976D2; stroke-width: 2; fill: none; }
    </style>
  </defs>

  <!-- Title -->
  <text x="700" y="30" text-anchor="middle" class="title">故障检测系统 - 详细界面原型</text>

  <!-- Main Interface Framework -->
  <g transform="translate(50, 60)">
    <rect x="0" y="0" width="1200" height="300" class="border" fill="#FFFFFF"/>
    <text x="600" y="20" text-anchor="middle" class="section-title">主界面框架</text>
    
    <!-- Top Navigation Bar -->
    <rect x="20" y="40" width="1160" height="50" class="primary" rx="4"/>
    <text x="40" y="60" class="text" fill="white">Logo</text>
    <text x="40" y="75" class="small-text" fill="white">故障检测系统</text>
    <text x="200" y="65" class="text" fill="white">集群状态 ●</text>
    <text x="350" y="65" class="text" fill="white">日志查询</text>
    <text x="450" y="65" class="text" fill="white">故障诊断</text>
    <text x="550" y="65" class="text" fill="white">自动修复</text>
    <text x="650" y="65" class="text" fill="white">系统配置</text>
    <text x="1100" y="65" text-anchor="end" class="text" fill="white">admin ▼</text>
    
    <!-- Main Body Area -->
    <rect x="20" y="100" width="1160" height="180" class="border" rx="4"/>
    <text x="600" y="120" text-anchor="middle" class="text">主体区域</text>
    
    <!-- Sidebar -->
    <rect x="40" y="130" width="200" height="140" class="light" rx="4"/>
    <text x="140" y="150" text-anchor="middle" class="text">侧边栏 (宽度: 240px)</text>
    <text x="50" y="170" class="small-text">📊 仪表板</text>
    <text x="50" y="185" class="small-text">🖥️ 集群监控</text>
    <text x="50" y="200" class="small-text">📝 日志管理</text>
    <text x="50" y="215" class="small-text">⚠️ 故障处理</text>
    <text x="50" y="230" class="small-text">🔧 修复历史</text>
    <text x="50" y="245" class="small-text">⚙️ 系统设置</text>
    
    <!-- Content Area -->
    <rect x="260" y="130" width="900" height="140" class="border" rx="4"/>
    <text x="710" y="150" text-anchor="middle" class="text">内容区域</text>
    <text x="280" y="170" class="small-text">面包屑导航</text>
    <text x="710" y="200" text-anchor="middle" class="text">页面内容</text>
  </g>

  <!-- Dashboard Content -->
  <g transform="translate(50, 400)">
    <rect x="0" y="0" width="1200" height="350" class="border" fill="#FFFFFF"/>
    <text x="600" y="20" text-anchor="middle" class="section-title">仪表板页面内容</text>
    
    <!-- Stats Cards (4 columns) -->
    <text x="20" y="50" class="text">统计卡片区 (4列布局)</text>
    <rect x="20" y="60" width="280" height="80" class="success" rx="4"/>
    <text x="160" y="80" text-anchor="middle" class="text" fill="white">集群节点</text>
    <text x="160" y="95" text-anchor="middle" class="text" fill="white">🖥️ 12/15</text>
    <text x="160" y="110" text-anchor="middle" class="small-text" fill="white">正常运行</text>
    
    <rect x="320" y="60" width="280" height="80" class="warning" rx="4"/>
    <text x="460" y="80" text-anchor="middle" class="text" fill="white">活跃告警</text>
    <text x="460" y="95" text-anchor="middle" class="text" fill="white">⚠️ 3</text>
    <text x="460" y="110" text-anchor="middle" class="small-text" fill="white">需要关注</text>
    
    <rect x="620" y="60" width="280" height="80" class="danger" rx="4"/>
    <text x="760" y="80" text-anchor="middle" class="text" fill="white">今日故障</text>
    <text x="760" y="95" text-anchor="middle" class="text" fill="white">❌ 1</text>
    <text x="760" y="110" text-anchor="middle" class="small-text" fill="white">已修复</text>
    
    <rect x="920" y="60" width="260" height="80" class="success" rx="4"/>
    <text x="1050" y="80" text-anchor="middle" class="text" fill="white">修复成功率</text>
    <text x="1050" y="95" text-anchor="middle" class="text" fill="white">✅ 95%</text>
    <text x="1050" y="110" text-anchor="middle" class="small-text" fill="white">本周统计</text>
    
    <!-- Charts Area (2 columns) -->
    <text x="20" y="170" class="text">监控图表区 (2列布局)</text>
    <rect x="20" y="180" width="580" height="100" class="light" rx="4"/>
    <text x="310" y="200" text-anchor="middle" class="text">CPU使用率趋势</text>
    <text x="310" y="215" text-anchor="middle" class="small-text">[折线图区域]</text>
    <text x="310" y="230" text-anchor="middle" class="small-text">📈 过去24小时</text>
    
    <rect x="620" y="180" width="560" height="100" class="light" rx="4"/>
    <text x="900" y="200" text-anchor="middle" class="text">内存使用率趋势</text>
    <text x="900" y="215" text-anchor="middle" class="small-text">[折线图区域]</text>
    <text x="900" y="230" text-anchor="middle" class="small-text">📊 过去24小时</text>
    
    <!-- Recent Faults Table -->
    <text x="20" y="310" class="text">最近故障表格</text>
    <rect x="20" y="320" width="1160" height="20" class="light" rx="2"/>
    <text x="30" y="335" class="small-text">表格标题: 最近故障 (刷新按钮)</text>
    <text x="30" y="350" class="small-text">ID | 类型 | 发生时间 | 状态 | 操作</text>
    <text x="30" y="365" class="small-text">001 | DataNode离线 | 10:30 | 已修复 | 查看</text>
    <text x="30" y="380" class="small-text">002 | 磁盘空间不足 | 09:15 | 修复中 | 查看</text>
    <text x="30" y="395" class="small-text">003 | 网络连接异常 | 08:45 | 待处理 | 诊断</text>
  </g>

  <!-- Log Query Content -->
  <g transform="translate(50, 800)">
    <rect x="0" y="0" width="1200" height="300" class="border" fill="#FFFFFF"/>
    <text x="600" y="20" text-anchor="middle" class="section-title">日志查询页面内容</text>
    
    <!-- Search Conditions Bar -->
    <rect x="20" y="40" width="1160" height="80" class="light" rx="4"/>
    <text x="30" y="60" class="text">搜索条件栏</text>
    <text x="30" y="80" class="small-text">时间范围: [开始时间] - [结束时间]</text>
    <text x="300" y="80" class="small-text">日志级别: ☑️ERROR ☑️WARN ☐INFO ☐DEBUG</text>
    <text x="30" y="100" class="small-text">关键词: [搜索框] 🔍</text>
    <text x="300" y="100" class="small-text">主机: [下拉选择] 全部主机 ▼</text>
    
    <!-- Action Buttons -->
    <rect x="20" y="130" width="200" height="30" class="primary" rx="4"/>
    <text x="120" y="150" text-anchor="middle" class="text" fill="white">🔍 搜索</text>
    
    <rect x="240" y="130" width="100" height="30" class="border" rx="4"/>
    <text x="290" y="150" text-anchor="middle" class="text">🔄 重置</text>
    
    <rect x="360" y="130" width="100" height="30" class="border" rx="4"/>
    <text x="410" y="150" text-anchor="middle" class="text">📤 导出</text>
    
    <rect x="480" y="130" width="150" height="30" class="warning" rx="4"/>
    <text x="555" y="150" text-anchor="middle" class="text" fill="white">🔬 批量诊断</text>
    
    <!-- Log Table -->
    <text x="20" y="190" class="text">日志列表表格</text>
    <rect x="20" y="200" width="1160" height="20" class="light" rx="2"/>
    <text x="30" y="215" class="small-text">☑️ | 时间 | 主机 | 级别 | 来源 | 消息 | 操作</text>
    <text x="30" y="235" class="small-text">☐ | 10:35:22 | node-1 | ERROR | HDFS | Connection failed | 诊断</text>
    <text x="30" y="250" class="small-text">☐ | 10:34:15 | node-2 | WARN | YARN | Memory usage high | 诊断</text>
    <text x="30" y="265" class="small-text">☑️ | 10:33:08 | node-1 | ERROR | HDFS | Disk space low | 诊断</text>
    
    <!-- Pagination -->
    <text x="600" y="290" text-anchor="middle" class="small-text">共 1,234 条 | 每页 50 条 | ◀️ 1 2 3 ... 25 ▶️</text>
  </g>

  <!-- Diagnose Content -->
  <g transform="translate(50, 1150)">
    <rect x="0" y="0" width="1200" height="300" class="border" fill="#FFFFFF"/>
    <text x="600" y="20" text-anchor="middle" class="section-title">故障诊断页面内容</text>
    
    <!-- Diagnose Configuration Panel -->
    <rect x="20" y="40" width="380" height="120" class="light" rx="4"/>
    <text x="210" y="60" text-anchor="middle" class="text">诊断配置面板</text>
    <text x="30" y="80" class="small-text">已选择日志: 3 条</text>
    <text x="30" y="95" class="small-text">[显示选中的日志摘要]</text>
    <text x="30" y="115" class="small-text">诊断模型: 🤖 GPT-4 ▼ | 🔧 Claude ▼</text>
    <text x="30" y="135" class="small-text">分析深度: ○ 快速分析 ● 深度分析 ○ 全面分析</text>
    
    <!-- Diagnose Control -->
    <rect x="420" y="40" width="200" height="120" class="border" rx="4"/>
    <text x="520" y="60" text-anchor="middle" class="text">诊断控制</text>
    <rect x="430" y="70" width="80" height="25" class="success" rx="4"/>
    <text x="470" y="85" text-anchor="middle" class="small-text" fill="white">🚀 开始诊断</text>
    <rect x="520" y="70" width="80" height="25" class="danger" rx="4"/>
    <text x="560" y="85" text-anchor="middle" class="small-text" fill="white">⏹️ 停止诊断</text>
    <rect x="430" y="105" width="80" height="25" class="border" rx="4"/>
    <text x="470" y="120" text-anchor="middle" class="small-text">📋 查看历史</text>
    
    <!-- Progress Display -->
    <rect x="640" y="40" width="540" height="120" class="border" rx="4"/>
    <text x="910" y="60" text-anchor="middle" class="text">诊断进度显示</text>
    <text x="910" y="80" text-anchor="middle" class="small-text">诊断进度: ████████░░ 80%</text>
    <text x="910" y="95" text-anchor="middle" class="small-text">当前状态: 正在分析日志模式...</text>
    <text x="910" y="110" text-anchor="middle" class="small-text">预计剩余: 30秒</text>
    
    <!-- Results Display -->
    <rect x="20" y="180" width="1160" height="100" class="border" rx="4"/>
    <text x="600" y="200" text-anchor="middle" class="text">诊断结果展示</text>
    <text x="30" y="220" class="small-text">🔍 故障类型: DataNode连接异常</text>
    <text x="30" y="235" class="small-text">📋 根本原因: 网络配置错误导致节点无法连接</text>
    <text x="30" y="250" class="small-text">💡 修复建议: 重启网络服务并更新配置</text>
    <text x="30" y="265" class="small-text">⚠️ 风险等级: 中等 (需要确认)</text>
    <rect x="1000" y="240" width="150" height="30" class="warning" rx="4"/>
    <text x="1075" y="260" text-anchor="middle" class="text" fill="white">🔧 生成修复方案</text>
  </g>

  <!-- Repair Content -->
  <g transform="translate(50, 1500)">
    <rect x="0" y="0" width="1200" height="300" class="border" fill="#FFFFFF"/>
    <text x="600" y="20" text-anchor="middle" class="section-title">自动修复页面内容</text>
    
    <!-- Repair Preview -->
    <rect x="20" y="40" width="380" height="120" class="light" rx="4"/>
    <text x="210" y="60" text-anchor="middle" class="text">修复方案预览</text>
    <text x="30" y="80" class="small-text">修复脚本:</text>
    <text x="30" y="95" class="small-text">sudo systemctl restart network</text>
    <text x="30" y="110" class="small-text">sudo hdfs dfsadmin -refreshNodes</text>
    <text x="30" y="125" class="small-text">影响范围: node-1</text>
    <text x="30" y="140" class="small-text">预计时间: 2分钟</text>
    
    <!-- Risk Assessment -->
    <rect x="420" y="40" width="380" height="120" class="warning" rx="4"/>
    <text x="610" y="60" text-anchor="middle" class="text" fill="white">风险评估</text>
    <text x="430" y="80" class="small-text" fill="white">⚠️ 风险等级: 中等</text>
    <text x="430" y="95" class="small-text" fill="white">📝 风险说明: 重启网络服务可能短暂影响数据传输</text>
    <text x="430" y="110" class="small-text" fill="white">🔄 回滚方案: 自动恢复原配置</text>
    
    <!-- Execution Confirm -->
    <rect x="820" y="40" width="360" height="120" class="border" rx="4"/>
    <text x="1000" y="60" text-anchor="middle" class="text">执行确认</text>
    <text x="830" y="80" class="small-text">☑️ 我已了解风险并确认执行</text>
    <text x="830" y="95" class="small-text">☑️ 已通知相关人员</text>
    <text x="830" y="110" class="small-text">☐ 在维护窗口期执行</text>
    <rect x="830" y="120" width="80" height="25" class="success" rx="4"/>
    <text x="870" y="135" text-anchor="middle" class="small-text" fill="white">🚀 执行修复</text>
    <rect x="920" y="120" width="60" height="25" class="border" rx="4"/>
    <text x="950" y="135" text-anchor="middle" class="small-text">❌ 取消</text>
    
    <!-- Execution Monitor -->
    <rect x="20" y="180" width="1160" height="100" class="border" rx="4"/>
    <text x="600" y="200" text-anchor="middle" class="text">执行监控</text>
    <text x="30" y="220" class="small-text">执行状态: 🔄 执行中... | 开始时间: 10:45:30</text>
    <text x="30" y="235" class="small-text">执行日志:</text>
    <text x="30" y="250" class="small-text">[10:45:31] 开始执行修复脚本...</text>
    <text x="30" y="265" class="small-text">[10:45:32] 正在重启网络服务... | [10:45:35] 网络服务重启完成</text>
  </g>

  <!-- Modal Designs -->
  <g transform="translate(50, 1850)">
    <rect x="0" y="0" width="1200" height="120" class="border" fill="#FFFFFF"/>
    <text x="600" y="20" text-anchor="middle" class="section-title">弹窗组件设计</text>
    
    <!-- High Risk Dialog -->
    <rect x="20" y="40" width="580" height="70" class="danger" rx="4"/>
    <text x="310" y="60" text-anchor="middle" class="text" fill="white">⚠️ 高风险操作确认</text>
    <text x="30" y="75" class="small-text" fill="white">此操作风险等级为: 高 | 可能影响: 整个集群稳定性</text>
    <text x="30" y="90" class="small-text" fill="white">建议操作时间: 维护窗口期 | 请输入确认码: CONFIRM-2024</text>
    <text x="30" y="105" class="small-text" fill="white">[取消] [确认执行]</text>
    
    <!-- Result Dialog -->
    <rect x="620" y="40" width="560" height="70" class="success" rx="4"/>
    <text x="900" y="60" text-anchor="middle" class="text" fill="white">✅ 修复执行成功</text>
    <text x="630" y="75" class="small-text" fill="white">执行时间: 2分35秒 | 影响节点: node-1 | 修复状态: 成功</text>
    <text x="630" y="90" class="small-text" fill="white">详细日志: [查看完整日志]</text>
    <text x="630" y="105" class="small-text" fill="white">[关闭] [查看详情]</text>
  </g>
</svg>